<?xml version="1.0" encoding="UTF-8"?>
<svg version="1.1" xmlns="http://www.w3.org/2000/svg" width="280" height="280">
<path d="M0 0 C92.4 0 184.8 0 280 0 C280 92.4 280 184.8 280 280 C187.6 280 95.2 280 0 280 C0 187.6 0 95.2 0 0 Z " fill="#9588AA" transform="translate(0,0)"/>
<path d="M0 0 C10.56 0 21.12 0 32 0 C30.865625 1.98 29.73125 3.96 28.5625 6 C26.36492834 9.83709412 24.17314746 13.67662651 22.02734375 17.54296875 C16.83221414 26.89191064 11.4068285 36.09690748 5.9364624 45.28665161 C1.56394653 52.63467273 -2.75161453 60.00556939 -6.90576172 67.47949219 C-11.13035806 75.06793098 -15.5785017 82.52523848 -20 90 C-23.98626338 96.74875289 -27.8744973 103.54501481 -31.71606445 110.37695312 C-36.96488345 119.7088486 -42.30292431 128.93519483 -48 138 C-49.00404235 139.66423458 -50.00532421 141.33015035 -51 143 C-55.16828521 141.6105716 -56.00910145 138.77772925 -57.875 135.0625 C-58.21781006 134.37663818 -58.56062012 133.69077637 -58.91381836 132.98413086 C-60.45287984 129.9186143 -61.91298356 127.11857952 -63.94921875 124.34375 C-65.80498735 121.71961232 -66.69486036 120.2178362 -67 117 C-65.33091683 111.86178738 -62.18380478 107.36792318 -59.22607422 102.89501953 C-57.57538072 100.34370872 -56.16050008 97.69005187 -54.75 95 C-52.75965995 91.32929089 -50.64597306 87.78909032 -48.40234375 84.26953125 C-45.11058439 78.94219926 -42.08837838 73.44709292 -39 68 C-34.42568542 59.94662925 -29.79132067 51.93651813 -25.07177734 43.9675293 C-20.81379829 36.74512421 -16.7138509 29.43433315 -12.6418457 22.10571289 C-9.73924282 16.92090734 -6.70941676 11.93086621 -3.28808594 7.0703125 C-1.67679098 4.61524957 -1.67679098 4.61524957 0 0 Z " fill="#FDFDFD" transform="translate(193,68)"/>
<path d="M0 0 C4.14387734 -0.24882404 8.28372119 -0.4293297 12.43286133 -0.54931641 C13.84085843 -0.59935413 15.24834223 -0.66741993 16.65454102 -0.75439453 C28.31181833 -1.45688909 28.31181833 -1.45688909 32.43237305 2.09912109 C34.24819783 4.66557556 35.65590353 7.1617635 37 10 C37.89161113 11.62732048 38.78688611 13.25264462 39.6875 14.875 C40.16960937 15.78507812 40.65171875 16.69515625 41.1484375 17.6328125 C45.04825911 24.72489314 49.32372551 31.60493159 53.51025391 38.53027344 C54.89211003 40.82113817 56.26650746 43.1162187 57.63671875 45.4140625 C58.03850342 46.08727539 58.44028809 46.76048828 58.85424805 47.45410156 C59.58977256 48.68723749 60.32438985 49.92091526 61.05786133 51.15527344 C62.70217097 53.90604563 64.36864726 56.48447224 66.3125 59.0390625 C68 62 68 62 68.0546875 64.83984375 C66.62575701 69.12134288 64.48663044 72.73237697 62.125 76.5625 C61.67769531 77.30435547 61.23039062 78.04621094 60.76953125 78.81054688 C59.52093959 80.87864192 58.26121689 82.93959096 57 85 C55.99842007 86.66571769 54.99757011 88.3318778 54 90 C50.33422292 88.77807431 50.10500444 87.92445971 48.29296875 84.625 C47.78830078 83.72136719 47.28363281 82.81773437 46.76367188 81.88671875 C46.24353516 80.93410156 45.72339844 79.98148437 45.1875 79 C40.83443757 71.1006367 40.83443757 71.1006367 35.98828125 63.5 C33.23312564 59.45489191 30.90096917 55.26297516 28.59375 50.94970703 C25.67539217 45.54842037 22.57442814 40.25098136 19.5 34.9375 C18.86191406 33.83083984 18.22382812 32.72417969 17.56640625 31.58398438 C13.16773094 23.96950861 8.70083942 16.40136794 4.1015625 8.90625 C3.61429688 8.1121875 3.12703125 7.318125 2.625 6.5 C2.12226562 5.6853125 1.61953125 4.870625 1.1015625 4.03125 C0 2 0 2 0 0 Z " fill="#FDFDFE" transform="translate(56,68)"/>
<path d="M0 0 C92.4 0 184.8 0 280 0 C280 92.4 280 184.8 280 280 C187.6 280 95.2 280 0 280 C0 187.6 0 95.2 0 0 Z M1 2 C1 93.41 1 184.82 1 279 C35.010625 279.020625 69.02125 279.04125 104.0625 279.0625 C114.66125244 279.071604 125.26000488 279.08070801 136.17993164 279.09008789 C145.97716506 279.0934395 145.97716506 279.0934395 155.7743988 279.09544373 C160.0199693 279.09634721 164.2655263 279.09997477 168.51109314 279.10557556 C205.02377794 279.14785442 241.48246572 278.5796434 278 278 C278 186.92 278 95.84 278 2 C186.59 2 95.18 2 1 2 Z " fill="#BCB6CC" transform="translate(0,0)"/>
<path d="M0 0 C14.52 0 29.04 0 44 0 C42.68942046 3.27644884 41.5137357 6.04904837 39.8125 9.0625 C39.37421875 9.83980469 38.9359375 10.61710937 38.484375 11.41796875 C36.85865426 14.24586719 35.21219763 17.06102462 33.5625 19.875 C30.25406129 25.51966078 27.09701339 31.23705933 24 37 C23.34 37 22.68 37 22 37 C20.8425293 35.45874023 20.8425293 35.45874023 19.57421875 33.30859375 C19.10693359 32.52806641 18.63964844 31.74753906 18.15820312 30.94335938 C17.67287109 30.11642578 17.18753906 29.28949219 16.6875 28.4375 C12.70493011 21.69124439 12.70493011 21.69124439 8.31640625 15.20703125 C6.4346746 12.60180075 4.7865903 10.06375626 3.25 7.25 C2.84265625 6.51265625 2.4353125 5.7753125 2.015625 5.015625 C1 3 1 3 0 0 Z " fill="#FDFDFD" transform="translate(118,68)"/>
<path d="M0 0 C62.37 0 124.74 0 189 0 C189 80.85 189 161.7 189 245 C188.67 245 188.34 245 188 245 C187.82285495 227.18759496 187.65706784 209.37509295 187.5 191.5625 C187.49405146 190.88932897 187.48810292 190.21615793 187.48197412 189.52258778 C187.08615678 144.63960941 186.90826497 99.75969627 186.9375 54.875 C186.93813635 53.86840513 186.93813635 53.86840513 186.93878555 52.84147501 C186.94968451 35.89430195 186.96977224 18.94714946 187 2 C186.19421572 2.00092179 185.38843143 2.00184359 184.55822945 2.00279331 C164.82940093 2.02500759 145.10057494 2.04148836 125.37173653 2.05181217 C115.83050203 2.0569391 106.28927596 2.06391193 96.74804688 2.07543945 C88.41890007 2.08549765 80.08975936 2.09187953 71.76060665 2.09408849 C67.36223841 2.09537697 62.96388762 2.0983416 58.56552505 2.10573006 C39.01691421 2.13733594 19.5299155 1.98600563 0 1 C0 0.67 0 0.34 0 0 Z " fill="#D6D3CE" transform="translate(91,0)"/>
<path d="M0 0 C0.66 0 1.32 0 2 0 C0.81691069 4.30214294 -0.97328847 7.69806143 -3.39453125 11.42578125 C-5.46289415 14.74220741 -7.35127661 18.14691483 -9.25 21.5625 C-13.66295499 29.4799706 -18.29272132 37.2546904 -23 45 C-23.96067888 42.45152735 -24.1386764 41.34530689 -23.10717773 38.77685547 C-22.63739502 37.98166504 -22.1676123 37.18647461 -21.68359375 36.3671875 C-21.16603516 35.47773438 -20.64847656 34.58828125 -20.11523438 33.671875 C-19.56158203 32.74890625 -19.00792969 31.8259375 -18.4375 30.875 C-17.91091797 29.97523438 -17.38433594 29.07546875 -16.84179688 28.1484375 C-13.72566063 22.83918211 -10.54519876 17.56811705 -7.36083984 12.29956055 C-5.49364799 9.1443614 -3.72996998 5.93641722 -1.98046875 2.71484375 C-1 1 -1 1 0 0 Z " fill="#926FA1" transform="translate(169,164)"/>
<path d="M0 0 C0.66 0.66 1.32 1.32 2 2 C1.01 4.31 0.02 6.62 -1 9 C-1.66 9 -2.32 9 -3 9 C-3.309375 10.1446875 -3.309375 10.1446875 -3.625 11.3125 C-5.55894391 16.49898594 -8.2785146 21.19033084 -11 26 C-11.66 26 -12.32 26 -13 26 C-13.2475 27.11375 -13.495 28.2275 -13.75 29.375 C-15 33 -15 33 -17.125 34.4375 C-17.74375 34.623125 -18.3625 34.80875 -19 35 C-22.51098025 30.98745115 -24.76537994 26.79016959 -27 22 C-26.01 22 -25.02 22 -24 22 C-22.61328125 23.6796875 -22.61328125 23.6796875 -21.3125 25.875 C-20.87550781 26.59429687 -20.43851563 27.31359375 -19.98828125 28.0546875 C-19 30 -19 30 -19 32 C-18.34 32 -17.68 32 -17 32 C-16.731875 31.29875 -16.46375 30.5975 -16.1875 29.875 C-14.06897167 24.74593141 -11.44810487 19.95867498 -8.625 15.1875 C-5.67222619 10.16590377 -2.79936323 5.10851539 0 0 Z " fill="#98789F" transform="translate(159,73)"/>
<path d="M0 0 C0.66 0.99 1.32 1.98 2 3 C-0.24688263 6.87681548 -2.49805711 10.75112205 -4.75 14.625 C-5.70132813 16.26662109 -5.70132813 16.26662109 -6.671875 17.94140625 C-15.17664599 32.55898139 -15.17664599 32.55898139 -19 36 C-18.4139026 31.94127547 -17.11615592 29.12253548 -15 25.625 C-14.37738281 24.58601563 -13.75476563 23.54703125 -13.11328125 22.4765625 C-12.40899292 21.317624 -11.70455778 20.15877471 -11 19 C-9.79430438 17.00033407 -8.59095713 14.99927671 -7.38867188 12.99755859 C-6.60192724 11.68919587 -5.81294633 10.38217466 -5.02148438 9.07666016 C-3.22526888 6.10336716 -1.48477716 3.14238552 0 0 Z " fill="#A496A0" transform="translate(223,70)"/>
<path d="M0 0 C4.20059624 1.40019875 5.19051525 4.36825877 7.1875 8.0625 C7.55552734 8.72572266 7.92355469 9.38894531 8.30273438 10.07226562 C9.21012062 11.71027457 10.10615573 13.35456221 11 15 C11.66 15 12.32 15 13 15 C14.98 11.37 16.96 7.74 19 4 C19.99 4 20.98 4 22 4 C16.9977221 14.55808656 16.9977221 14.55808656 13 19 C8.48608808 17.52917477 6.93427249 13.99952249 4.8125 10.0625 C4.45736328 9.42892578 4.10222656 8.79535156 3.73632812 8.14257812 C2.2492057 5.45898529 0.97213106 2.91639317 0 0 Z " fill="#88719D" transform="translate(97,142)"/>
<path d="M0 0 C4.39314193 4.15424891 7.21255298 8.85180803 10.3125 14 C10.87517578 14.90234375 11.43785156 15.8046875 12.01757812 16.734375 C12.54416016 17.60578125 13.07074219 18.4771875 13.61328125 19.375 C14.09579346 20.16648437 14.57830566 20.95796875 15.07543945 21.7734375 C16.1453338 24.34999847 15.97336958 25.43460923 15 28 C0 3.3 0 3.3 0 0 Z " fill="#8B6F9D" transform="translate(66,88)"/>
<path d="M0 0 C0.6640625 1.73828125 0.6640625 1.73828125 1 4 C-0.0390625 6.04296875 -0.0390625 6.04296875 -1.625 8.1875 C-4.77929346 12.62414641 -7.43679561 17.20249797 -10 22 C-10.86771359 19.59002157 -11.16718028 18.42374766 -10.21142578 16.0012207 C-9.7936084 15.31632568 -9.37579102 14.63143066 -8.9453125 13.92578125 C-8.49542969 13.17619141 -8.04554688 12.42660156 -7.58203125 11.65429688 C-7.10121094 10.88150391 -6.62039062 10.10871094 -6.125 9.3125 C-5.41537109 8.1359082 -5.41537109 8.1359082 -4.69140625 6.93554688 C-1.22901786 1.22901786 -1.22901786 1.22901786 0 0 Z " fill="#866F9C" transform="translate(156,187)"/>
<path d="M0 0 C3.59680213 3.21776692 5.83627017 6.87229691 8.125 11.0625 C10.92752587 16.11116404 10.92752587 16.11116404 14 21 C14 21.99 14 22.98 14 24 C13.34 24 12.68 24 12 24 C11.505 22.96875 11.01 21.9375 10.5 20.875 C8.10009707 16.04041293 5.38575423 11.39525221 2.64257812 6.74951172 C0 2.21491759 0 2.21491759 0 0 Z " fill="#876F9B" transform="translate(83,117)"/>
<path d="M0 0 C0.66 0.66 1.32 1.32 2 2 C1.51789063 2.81984375 1.03578125 3.6396875 0.5390625 4.484375 C-0.09257812 5.56203125 -0.72421875 6.6396875 -1.375 7.75 C-2.00148437 8.81734375 -2.62796875 9.8846875 -3.2734375 10.984375 C-4.59772663 13.29738678 -5.84636846 15.59951417 -7 18 C-7.99 17.67 -8.98 17.34 -10 17 C-6.88708633 11.16847507 -3.80372738 5.41299666 0 0 Z " fill="#9672A0" transform="translate(180,145)"/>
<path d="M0 0 C0.66 0.66 1.32 1.32 2 2 C1.01 4.31 0.02 6.62 -1 9 C-1.66 9 -2.32 9 -3 9 C-3.4021875 10.299375 -3.4021875 10.299375 -3.8125 11.625 C-4.97111987 14.91791964 -6.38209839 17.91127875 -8 21 C-8.66 20.01 -9.32 19.02 -10 18 C-6.66666667 12 -3.33333333 6 0 0 Z " fill="#9B809F" transform="translate(159,73)"/>
<path d="M0 0 C0.66 0 1.32 0 2 0 C0.80419731 3.36998939 -0.71745918 6.52542212 -2.375 9.6875 C-2.77460938 10.45449219 -3.17421875 11.22148438 -3.5859375 12.01171875 C-5.17709429 14.24900827 -6.47797905 14.99655762 -9 16 C-8.06758496 14.08085447 -7.12885525 12.16477614 -6.1875 10.25 C-5.66542969 9.18265625 -5.14335937 8.1153125 -4.60546875 7.015625 C-3.23070652 4.43334655 -1.93716049 2.18660307 0 0 Z " fill="#9D859F" transform="translate(202,107)"/>
<path d="M0 0 C3.1286445 2.085763 3.82564728 3.14435789 5.5 6.375 C6.7652413 8.80004582 7.96044189 10.94980599 9.65625 13.1015625 C11 15 11 15 11 18 C8 17 8 17 6.97265625 15.3984375 C6.67230469 14.73070313 6.37195313 14.06296875 6.0625 13.375 C4.73975747 10.5354446 3.35107179 7.8179688 1.75 5.125 C0 2 0 2 0 0 Z " fill="#97789E" transform="translate(121,75)"/>
<path d="M0 0 C0.75 1.6875 0.75 1.6875 1 4 C-0.27358732 5.71275535 -1.61423077 7.37667033 -3 9 C-4.24016669 11.6794645 -4.24016669 11.6794645 -5 14 C-5.66 14 -6.32 14 -7 14 C-7.33 14.66 -7.66 15.32 -8 16 C-7.42070126 11.97387377 -6.14350034 9.19196689 -4 5.75 C-3.46375 4.87859375 -2.9275 4.0071875 -2.375 3.109375 C-1 1 -1 1 0 0 Z " fill="#977A9E" transform="translate(190,128)"/>
<path d="M0 0 C2.44457392 2.25044599 4.09902934 4.55801293 5.75 7.4375 C6.19859375 8.19933594 6.6471875 8.96117187 7.109375 9.74609375 C8.13203743 12.33414736 7.95772637 13.43633001 7 16 C5.82845707 13.71070947 4.66261926 11.41881638 3.5 9.125 C3.16613281 8.47402344 2.83226562 7.82304687 2.48828125 7.15234375 C0 2.2265625 0 2.2265625 0 0 Z " fill="#81729B" transform="translate(126,187)"/>
<path d="M0 0 C0.65234375 1.765625 0.65234375 1.765625 1 4 C0.00390625 5.921875 0.00390625 5.921875 -1.4375 7.75 C-2.14712891 8.67039062 -2.14712891 8.67039062 -2.87109375 9.609375 C-3.24363281 10.06828125 -3.61617187 10.5271875 -4 11 C-5 8 -5 8 -4.00390625 5.95703125 C-3.52824219 5.24933594 -3.05257812 4.54164062 -2.5625 3.8125 C-2.08941406 3.09707031 -1.61632812 2.38164063 -1.12890625 1.64453125 C-0.75636719 1.10183594 -0.38382813 0.55914062 0 0 Z " fill="#9E8A9D" transform="translate(209,95)"/>
<path d="M0 0 C0.66 0 1.32 0 2 0 C0.80100302 3.0831351 -0.47700477 6.06279492 -2 9 C-2.66 9 -3.32 9 -4 9 C-3.35494404 5.51669784 -2.01782732 2.90567134 0 0 Z " fill="#8C6B9E" transform="translate(123,135)"/>
<path d="M0 0 C3.2542015 2.83430453 4.5206753 4.68607774 5 9 C1.7457985 6.16569547 0.4793247 4.31392226 0 0 Z " fill="#7D7198" transform="translate(135,204)"/>
<path d="M0 0 C0.66 0.66 1.32 1.32 2 2 C1.01 4.31 0.02 6.62 -1 9 C-2.1875 7.3125 -2.1875 7.3125 -3 5 C-1.625 2.25 -1.625 2.25 0 0 Z " fill="#A189A3" transform="translate(159,73)"/>
</svg>
